<?xml version="1.0" encoding="utf-8"?>
<!-- Generator: Adobe Illustrator 25.0.1, SVG Export Plug-In . SVG Version: 6.00 Build 0)  -->
<svg version="1.1" id="Layer_1" xmlns="http://www.w3.org/2000/svg" xmlns:xlink="http://www.w3.org/1999/xlink" x="0px" y="0px"
	 viewBox="0 0 40 40" style="enable-background:new 0 0 40 40;" xml:space="preserve">
<style type="text/css">
	.st0{fill:#FFFFFF;}
</style>
<path class="st0" d="M11.5,14.5l8,14.7c0.1,0.2,0.4,0.2,0.5,0l8.1-14.6c0.1-0.2-0.1-0.5-0.4-0.4l-3.1,1.4c-0.3,0.1-2.9,1.3-4.9,2.1
	c-2-0.9-4.4-2-4.8-2.2l-3.1-1.4C11.7,14,11.4,14.3,11.5,14.5z"/>
<path class="st0" d="M34.7,20c0,8.1-6.6,14.7-14.7,14.7S5.3,28.1,5.3,20S11.9,5.3,20,5.3S34.7,11.9,34.7,20 M36,20
	c0-8.8-7.2-16-16-16S4,11.2,4,20s7.2,16,16,16S36,28.8,36,20L36,20z"/>
</svg>
